<mxfile host="app.diagrams.net" agent="Mozilla/5.0 (X11; Ubuntu; Linux x86_64; rv:136.0) Gecko/20100101 Firefox/136.0" version="26.1.1">
  <diagram name="Page-1" id="2123CUrT9XOBt0kr0B5f">
    <mxGraphModel dx="1654" dy="759" grid="1" gridSize="10" guides="1" tooltips="1" connect="1" arrows="1" fold="1" page="1" pageScale="1" pageWidth="3300" pageHeight="4681" math="0" shadow="0">
      <root>
        <mxCell id="0" />
        <mxCell id="1" parent="0" />
        <mxCell id="JEjHz2yeaqNmLN5t5JRZ-63" value="" style="rounded=0;whiteSpace=wrap;html=1;" vertex="1" parent="1">
          <mxGeometry x="110" y="240" width="1040" height="820" as="geometry" />
        </mxCell>
        <mxCell id="JEjHz2yeaqNmLN5t5JRZ-1" value="&lt;div&gt;Linha Encomenda&lt;/div&gt;" style="swimlane;fontStyle=1;align=center;verticalAlign=top;childLayout=stackLayout;horizontal=1;startSize=26;horizontalStack=0;resizeParent=1;resizeParentMax=0;resizeLast=0;collapsible=1;marginBottom=0;whiteSpace=wrap;html=1;" vertex="1" parent="1">
          <mxGeometry x="719" y="281" width="340" height="738" as="geometry" />
        </mxCell>
        <mxCell id="JEjHz2yeaqNmLN5t5JRZ-2" value="- referencia : String" style="text;strokeColor=none;fillColor=none;align=left;verticalAlign=top;spacingLeft=4;spacingRight=4;overflow=hidden;rotatable=0;points=[[0,0.5],[1,0.5]];portConstraint=eastwest;whiteSpace=wrap;html=1;" vertex="1" parent="JEjHz2yeaqNmLN5t5JRZ-1">
          <mxGeometry y="26" width="340" height="26" as="geometry" />
        </mxCell>
        <mxCell id="JEjHz2yeaqNmLN5t5JRZ-4" value="- descricao : String" style="text;strokeColor=none;fillColor=none;align=left;verticalAlign=top;spacingLeft=4;spacingRight=4;overflow=hidden;rotatable=0;points=[[0,0.5],[1,0.5]];portConstraint=eastwest;whiteSpace=wrap;html=1;" vertex="1" parent="JEjHz2yeaqNmLN5t5JRZ-1">
          <mxGeometry y="52" width="340" height="26" as="geometry" />
        </mxCell>
        <mxCell id="JEjHz2yeaqNmLN5t5JRZ-5" value="- preco : double" style="text;strokeColor=none;fillColor=none;align=left;verticalAlign=top;spacingLeft=4;spacingRight=4;overflow=hidden;rotatable=0;points=[[0,0.5],[1,0.5]];portConstraint=eastwest;whiteSpace=wrap;html=1;" vertex="1" parent="JEjHz2yeaqNmLN5t5JRZ-1">
          <mxGeometry y="78" width="340" height="26" as="geometry" />
        </mxCell>
        <mxCell id="JEjHz2yeaqNmLN5t5JRZ-6" value="- quantidade : int" style="text;strokeColor=none;fillColor=none;align=left;verticalAlign=top;spacingLeft=4;spacingRight=4;overflow=hidden;rotatable=0;points=[[0,0.5],[1,0.5]];portConstraint=eastwest;whiteSpace=wrap;html=1;" vertex="1" parent="JEjHz2yeaqNmLN5t5JRZ-1">
          <mxGeometry y="104" width="340" height="26" as="geometry" />
        </mxCell>
        <mxCell id="JEjHz2yeaqNmLN5t5JRZ-7" value="- imposto : double" style="text;strokeColor=none;fillColor=none;align=left;verticalAlign=top;spacingLeft=4;spacingRight=4;overflow=hidden;rotatable=0;points=[[0,0.5],[1,0.5]];portConstraint=eastwest;whiteSpace=wrap;html=1;" vertex="1" parent="JEjHz2yeaqNmLN5t5JRZ-1">
          <mxGeometry y="130" width="340" height="26" as="geometry" />
        </mxCell>
        <mxCell id="JEjHz2yeaqNmLN5t5JRZ-8" value="- desconto : double" style="text;strokeColor=none;fillColor=none;align=left;verticalAlign=top;spacingLeft=4;spacingRight=4;overflow=hidden;rotatable=0;points=[[0,0.5],[1,0.5]];portConstraint=eastwest;whiteSpace=wrap;html=1;" vertex="1" parent="JEjHz2yeaqNmLN5t5JRZ-1">
          <mxGeometry y="156" width="340" height="26" as="geometry" />
        </mxCell>
        <mxCell id="JEjHz2yeaqNmLN5t5JRZ-3" value="" style="line;strokeWidth=1;fillColor=none;align=left;verticalAlign=middle;spacingTop=-1;spacingLeft=3;spacingRight=3;rotatable=0;labelPosition=right;points=[];portConstraint=eastwest;strokeColor=inherit;" vertex="1" parent="JEjHz2yeaqNmLN5t5JRZ-1">
          <mxGeometry y="182" width="340" height="8" as="geometry" />
        </mxCell>
        <mxCell id="JEjHz2yeaqNmLN5t5JRZ-9" value="+ LinhaEncomenda()" style="text;strokeColor=none;fillColor=none;align=left;verticalAlign=top;spacingLeft=4;spacingRight=4;overflow=hidden;rotatable=0;points=[[0,0.5],[1,0.5]];portConstraint=eastwest;whiteSpace=wrap;html=1;" vertex="1" parent="JEjHz2yeaqNmLN5t5JRZ-1">
          <mxGeometry y="190" width="340" height="26" as="geometry" />
        </mxCell>
        <mxCell id="JEjHz2yeaqNmLN5t5JRZ-11" value="&lt;div&gt;+ LinhaEncomenda(referencia : String, descricao : String,&lt;/div&gt;&lt;div&gt;&lt;span style=&quot;white-space: pre;&quot;&gt;&#x9;&lt;/span&gt;&lt;span style=&quot;white-space: pre;&quot;&gt;&#x9;&lt;/span&gt;&lt;span style=&quot;white-space: pre;&quot;&gt;&#x9;&lt;/span&gt;&lt;span style=&quot;white-space: pre;&quot;&gt;&#x9;&lt;/span&gt;preco : double, quantidade : int,&lt;/div&gt;&lt;div&gt;&lt;span style=&quot;white-space: pre;&quot;&gt;&#x9;&lt;/span&gt;&lt;span style=&quot;white-space: pre;&quot;&gt;&#x9;&lt;/span&gt;&lt;span style=&quot;white-space: pre;&quot;&gt;&#x9;&lt;/span&gt;&lt;span style=&quot;white-space: pre;&quot;&gt;&#x9;&lt;/span&gt;imposto : double, desconto : double)&lt;/div&gt;" style="text;strokeColor=none;fillColor=none;align=left;verticalAlign=top;spacingLeft=4;spacingRight=4;overflow=hidden;rotatable=0;points=[[0,0.5],[1,0.5]];portConstraint=eastwest;whiteSpace=wrap;html=1;" vertex="1" parent="JEjHz2yeaqNmLN5t5JRZ-1">
          <mxGeometry y="216" width="340" height="54" as="geometry" />
        </mxCell>
        <mxCell id="JEjHz2yeaqNmLN5t5JRZ-10" value="+ LinhaEncomenda(linha : LinhaEncomenda)" style="text;strokeColor=none;fillColor=none;align=left;verticalAlign=top;spacingLeft=4;spacingRight=4;overflow=hidden;rotatable=0;points=[[0,0.5],[1,0.5]];portConstraint=eastwest;whiteSpace=wrap;html=1;" vertex="1" parent="JEjHz2yeaqNmLN5t5JRZ-1">
          <mxGeometry y="270" width="340" height="26" as="geometry" />
        </mxCell>
        <mxCell id="JEjHz2yeaqNmLN5t5JRZ-13" value="+ calculaValorLinhaEnc() : double" style="text;strokeColor=none;fillColor=none;align=left;verticalAlign=top;spacingLeft=4;spacingRight=4;overflow=hidden;rotatable=0;points=[[0,0.5],[1,0.5]];portConstraint=eastwest;whiteSpace=wrap;html=1;" vertex="1" parent="JEjHz2yeaqNmLN5t5JRZ-1">
          <mxGeometry y="296" width="340" height="26" as="geometry" />
        </mxCell>
        <mxCell id="JEjHz2yeaqNmLN5t5JRZ-14" value="+ calculaValorDesconto() : double" style="text;strokeColor=none;fillColor=none;align=left;verticalAlign=top;spacingLeft=4;spacingRight=4;overflow=hidden;rotatable=0;points=[[0,0.5],[1,0.5]];portConstraint=eastwest;whiteSpace=wrap;html=1;" vertex="1" parent="JEjHz2yeaqNmLN5t5JRZ-1">
          <mxGeometry y="322" width="340" height="26" as="geometry" />
        </mxCell>
        <mxCell id="JEjHz2yeaqNmLN5t5JRZ-15" value="+ getReferencia() : String" style="text;strokeColor=none;fillColor=none;align=left;verticalAlign=top;spacingLeft=4;spacingRight=4;overflow=hidden;rotatable=0;points=[[0,0.5],[1,0.5]];portConstraint=eastwest;whiteSpace=wrap;html=1;" vertex="1" parent="JEjHz2yeaqNmLN5t5JRZ-1">
          <mxGeometry y="348" width="340" height="26" as="geometry" />
        </mxCell>
        <mxCell id="JEjHz2yeaqNmLN5t5JRZ-16" value="+ setReferencia(referencia : String)" style="text;strokeColor=none;fillColor=none;align=left;verticalAlign=top;spacingLeft=4;spacingRight=4;overflow=hidden;rotatable=0;points=[[0,0.5],[1,0.5]];portConstraint=eastwest;whiteSpace=wrap;html=1;" vertex="1" parent="JEjHz2yeaqNmLN5t5JRZ-1">
          <mxGeometry y="374" width="340" height="26" as="geometry" />
        </mxCell>
        <mxCell id="JEjHz2yeaqNmLN5t5JRZ-17" value="+ getDescricao() : String" style="text;strokeColor=none;fillColor=none;align=left;verticalAlign=top;spacingLeft=4;spacingRight=4;overflow=hidden;rotatable=0;points=[[0,0.5],[1,0.5]];portConstraint=eastwest;whiteSpace=wrap;html=1;" vertex="1" parent="JEjHz2yeaqNmLN5t5JRZ-1">
          <mxGeometry y="400" width="340" height="26" as="geometry" />
        </mxCell>
        <mxCell id="JEjHz2yeaqNmLN5t5JRZ-19" value="+ setDescricao(descricao : String)" style="text;strokeColor=none;fillColor=none;align=left;verticalAlign=top;spacingLeft=4;spacingRight=4;overflow=hidden;rotatable=0;points=[[0,0.5],[1,0.5]];portConstraint=eastwest;whiteSpace=wrap;html=1;" vertex="1" parent="JEjHz2yeaqNmLN5t5JRZ-1">
          <mxGeometry y="426" width="340" height="26" as="geometry" />
        </mxCell>
        <mxCell id="JEjHz2yeaqNmLN5t5JRZ-18" value="+ getPreco() : double" style="text;strokeColor=none;fillColor=none;align=left;verticalAlign=top;spacingLeft=4;spacingRight=4;overflow=hidden;rotatable=0;points=[[0,0.5],[1,0.5]];portConstraint=eastwest;whiteSpace=wrap;html=1;" vertex="1" parent="JEjHz2yeaqNmLN5t5JRZ-1">
          <mxGeometry y="452" width="340" height="26" as="geometry" />
        </mxCell>
        <mxCell id="JEjHz2yeaqNmLN5t5JRZ-20" value="+ setPreco(preco : double)" style="text;strokeColor=none;fillColor=none;align=left;verticalAlign=top;spacingLeft=4;spacingRight=4;overflow=hidden;rotatable=0;points=[[0,0.5],[1,0.5]];portConstraint=eastwest;whiteSpace=wrap;html=1;" vertex="1" parent="JEjHz2yeaqNmLN5t5JRZ-1">
          <mxGeometry y="478" width="340" height="26" as="geometry" />
        </mxCell>
        <mxCell id="JEjHz2yeaqNmLN5t5JRZ-21" value="+ getQuantidade() : int" style="text;strokeColor=none;fillColor=none;align=left;verticalAlign=top;spacingLeft=4;spacingRight=4;overflow=hidden;rotatable=0;points=[[0,0.5],[1,0.5]];portConstraint=eastwest;whiteSpace=wrap;html=1;" vertex="1" parent="JEjHz2yeaqNmLN5t5JRZ-1">
          <mxGeometry y="504" width="340" height="26" as="geometry" />
        </mxCell>
        <mxCell id="JEjHz2yeaqNmLN5t5JRZ-22" value="+ setQuantidade(quantidade : int)" style="text;strokeColor=none;fillColor=none;align=left;verticalAlign=top;spacingLeft=4;spacingRight=4;overflow=hidden;rotatable=0;points=[[0,0.5],[1,0.5]];portConstraint=eastwest;whiteSpace=wrap;html=1;" vertex="1" parent="JEjHz2yeaqNmLN5t5JRZ-1">
          <mxGeometry y="530" width="340" height="26" as="geometry" />
        </mxCell>
        <mxCell id="JEjHz2yeaqNmLN5t5JRZ-23" value="+ getImposto() : double" style="text;strokeColor=none;fillColor=none;align=left;verticalAlign=top;spacingLeft=4;spacingRight=4;overflow=hidden;rotatable=0;points=[[0,0.5],[1,0.5]];portConstraint=eastwest;whiteSpace=wrap;html=1;" vertex="1" parent="JEjHz2yeaqNmLN5t5JRZ-1">
          <mxGeometry y="556" width="340" height="26" as="geometry" />
        </mxCell>
        <mxCell id="JEjHz2yeaqNmLN5t5JRZ-24" value="+ setImposto(imposto : double)" style="text;strokeColor=none;fillColor=none;align=left;verticalAlign=top;spacingLeft=4;spacingRight=4;overflow=hidden;rotatable=0;points=[[0,0.5],[1,0.5]];portConstraint=eastwest;whiteSpace=wrap;html=1;" vertex="1" parent="JEjHz2yeaqNmLN5t5JRZ-1">
          <mxGeometry y="582" width="340" height="26" as="geometry" />
        </mxCell>
        <mxCell id="JEjHz2yeaqNmLN5t5JRZ-25" value="+ getDesconto() : double" style="text;strokeColor=none;fillColor=none;align=left;verticalAlign=top;spacingLeft=4;spacingRight=4;overflow=hidden;rotatable=0;points=[[0,0.5],[1,0.5]];portConstraint=eastwest;whiteSpace=wrap;html=1;" vertex="1" parent="JEjHz2yeaqNmLN5t5JRZ-1">
          <mxGeometry y="608" width="340" height="26" as="geometry" />
        </mxCell>
        <mxCell id="JEjHz2yeaqNmLN5t5JRZ-26" value="+ setDesconto(desconto : double)" style="text;strokeColor=none;fillColor=none;align=left;verticalAlign=top;spacingLeft=4;spacingRight=4;overflow=hidden;rotatable=0;points=[[0,0.5],[1,0.5]];portConstraint=eastwest;whiteSpace=wrap;html=1;" vertex="1" parent="JEjHz2yeaqNmLN5t5JRZ-1">
          <mxGeometry y="634" width="340" height="26" as="geometry" />
        </mxCell>
        <mxCell id="JEjHz2yeaqNmLN5t5JRZ-27" value="+ clone() : LinhaEncomenda" style="text;strokeColor=none;fillColor=none;align=left;verticalAlign=top;spacingLeft=4;spacingRight=4;overflow=hidden;rotatable=0;points=[[0,0.5],[1,0.5]];portConstraint=eastwest;whiteSpace=wrap;html=1;" vertex="1" parent="JEjHz2yeaqNmLN5t5JRZ-1">
          <mxGeometry y="660" width="340" height="26" as="geometry" />
        </mxCell>
        <mxCell id="JEjHz2yeaqNmLN5t5JRZ-28" value="+ equals(o : Object) : boolean" style="text;strokeColor=none;fillColor=none;align=left;verticalAlign=top;spacingLeft=4;spacingRight=4;overflow=hidden;rotatable=0;points=[[0,0.5],[1,0.5]];portConstraint=eastwest;whiteSpace=wrap;html=1;" vertex="1" parent="JEjHz2yeaqNmLN5t5JRZ-1">
          <mxGeometry y="686" width="340" height="26" as="geometry" />
        </mxCell>
        <mxCell id="JEjHz2yeaqNmLN5t5JRZ-29" value="+ toString() : String" style="text;strokeColor=none;fillColor=none;align=left;verticalAlign=top;spacingLeft=4;spacingRight=4;overflow=hidden;rotatable=0;points=[[0,0.5],[1,0.5]];portConstraint=eastwest;whiteSpace=wrap;html=1;" vertex="1" parent="JEjHz2yeaqNmLN5t5JRZ-1">
          <mxGeometry y="712" width="340" height="26" as="geometry" />
        </mxCell>
        <mxCell id="JEjHz2yeaqNmLN5t5JRZ-30" value="Encomenda Eficiente" style="swimlane;fontStyle=1;align=center;verticalAlign=top;childLayout=stackLayout;horizontal=1;startSize=26;horizontalStack=0;resizeParent=1;resizeParentMax=0;resizeLast=0;collapsible=1;marginBottom=0;whiteSpace=wrap;html=1;" vertex="1" parent="1">
          <mxGeometry x="159" y="268" width="320" height="762" as="geometry" />
        </mxCell>
        <mxCell id="JEjHz2yeaqNmLN5t5JRZ-31" value="- cliente : String" style="text;strokeColor=none;fillColor=none;align=left;verticalAlign=top;spacingLeft=4;spacingRight=4;overflow=hidden;rotatable=0;points=[[0,0.5],[1,0.5]];portConstraint=eastwest;whiteSpace=wrap;html=1;" vertex="1" parent="JEjHz2yeaqNmLN5t5JRZ-30">
          <mxGeometry y="26" width="320" height="26" as="geometry" />
        </mxCell>
        <mxCell id="JEjHz2yeaqNmLN5t5JRZ-34" value="- NIF : int" style="text;strokeColor=none;fillColor=none;align=left;verticalAlign=top;spacingLeft=4;spacingRight=4;overflow=hidden;rotatable=0;points=[[0,0.5],[1,0.5]];portConstraint=eastwest;whiteSpace=wrap;html=1;" vertex="1" parent="JEjHz2yeaqNmLN5t5JRZ-30">
          <mxGeometry y="52" width="320" height="26" as="geometry" />
        </mxCell>
        <mxCell id="JEjHz2yeaqNmLN5t5JRZ-35" value="- morada : String" style="text;strokeColor=none;fillColor=none;align=left;verticalAlign=top;spacingLeft=4;spacingRight=4;overflow=hidden;rotatable=0;points=[[0,0.5],[1,0.5]];portConstraint=eastwest;whiteSpace=wrap;html=1;" vertex="1" parent="JEjHz2yeaqNmLN5t5JRZ-30">
          <mxGeometry y="78" width="320" height="26" as="geometry" />
        </mxCell>
        <mxCell id="JEjHz2yeaqNmLN5t5JRZ-36" value="- numero_encomenda : int" style="text;strokeColor=none;fillColor=none;align=left;verticalAlign=top;spacingLeft=4;spacingRight=4;overflow=hidden;rotatable=0;points=[[0,0.5],[1,0.5]];portConstraint=eastwest;whiteSpace=wrap;html=1;" vertex="1" parent="JEjHz2yeaqNmLN5t5JRZ-30">
          <mxGeometry y="104" width="320" height="26" as="geometry" />
        </mxCell>
        <mxCell id="JEjHz2yeaqNmLN5t5JRZ-37" value="- data : LocalDate" style="text;strokeColor=none;fillColor=none;align=left;verticalAlign=top;spacingLeft=4;spacingRight=4;overflow=hidden;rotatable=0;points=[[0,0.5],[1,0.5]];portConstraint=eastwest;whiteSpace=wrap;html=1;" vertex="1" parent="JEjHz2yeaqNmLN5t5JRZ-30">
          <mxGeometry y="130" width="320" height="26" as="geometry" />
        </mxCell>
        <mxCell id="JEjHz2yeaqNmLN5t5JRZ-33" value="&lt;u&gt;- identificadores_encomenda : int&lt;/u&gt;" style="text;strokeColor=none;fillColor=none;align=left;verticalAlign=top;spacingLeft=4;spacingRight=4;overflow=hidden;rotatable=0;points=[[0,0.5],[1,0.5]];portConstraint=eastwest;whiteSpace=wrap;html=1;" vertex="1" parent="JEjHz2yeaqNmLN5t5JRZ-30">
          <mxGeometry y="156" width="320" height="26" as="geometry" />
        </mxCell>
        <mxCell id="JEjHz2yeaqNmLN5t5JRZ-32" value="" style="line;strokeWidth=1;fillColor=none;align=left;verticalAlign=middle;spacingTop=-1;spacingLeft=3;spacingRight=3;rotatable=0;labelPosition=right;points=[];portConstraint=eastwest;strokeColor=inherit;" vertex="1" parent="JEjHz2yeaqNmLN5t5JRZ-30">
          <mxGeometry y="182" width="320" height="8" as="geometry" />
        </mxCell>
        <mxCell id="JEjHz2yeaqNmLN5t5JRZ-38" value="+ EncEficiente()" style="text;strokeColor=none;fillColor=none;align=left;verticalAlign=top;spacingLeft=4;spacingRight=4;overflow=hidden;rotatable=0;points=[[0,0.5],[1,0.5]];portConstraint=eastwest;whiteSpace=wrap;html=1;" vertex="1" parent="JEjHz2yeaqNmLN5t5JRZ-30">
          <mxGeometry y="190" width="320" height="26" as="geometry" />
        </mxCell>
        <mxCell id="JEjHz2yeaqNmLN5t5JRZ-39" value="+ EncEficiente(cliente : String, NIF : int, morada : String)" style="text;strokeColor=none;fillColor=none;align=left;verticalAlign=top;spacingLeft=4;spacingRight=4;overflow=hidden;rotatable=0;points=[[0,0.5],[1,0.5]];portConstraint=eastwest;whiteSpace=wrap;html=1;" vertex="1" parent="JEjHz2yeaqNmLN5t5JRZ-30">
          <mxGeometry y="216" width="320" height="26" as="geometry" />
        </mxCell>
        <mxCell id="JEjHz2yeaqNmLN5t5JRZ-40" value="+ EncEficiente(outro : EncEficiente)" style="text;strokeColor=none;fillColor=none;align=left;verticalAlign=top;spacingLeft=4;spacingRight=4;overflow=hidden;rotatable=0;points=[[0,0.5],[1,0.5]];portConstraint=eastwest;whiteSpace=wrap;html=1;" vertex="1" parent="JEjHz2yeaqNmLN5t5JRZ-30">
          <mxGeometry y="242" width="320" height="26" as="geometry" />
        </mxCell>
        <mxCell id="JEjHz2yeaqNmLN5t5JRZ-41" value="&lt;u&gt;+ get_identificadores_encomenda() : int&lt;/u&gt;" style="text;strokeColor=none;fillColor=none;align=left;verticalAlign=top;spacingLeft=4;spacingRight=4;overflow=hidden;rotatable=0;points=[[0,0.5],[1,0.5]];portConstraint=eastwest;whiteSpace=wrap;html=1;" vertex="1" parent="JEjHz2yeaqNmLN5t5JRZ-30">
          <mxGeometry y="268" width="320" height="26" as="geometry" />
        </mxCell>
        <mxCell id="JEjHz2yeaqNmLN5t5JRZ-42" value="+ get_cliente() : String" style="text;strokeColor=none;fillColor=none;align=left;verticalAlign=top;spacingLeft=4;spacingRight=4;overflow=hidden;rotatable=0;points=[[0,0.5],[1,0.5]];portConstraint=eastwest;whiteSpace=wrap;html=1;" vertex="1" parent="JEjHz2yeaqNmLN5t5JRZ-30">
          <mxGeometry y="294" width="320" height="26" as="geometry" />
        </mxCell>
        <mxCell id="JEjHz2yeaqNmLN5t5JRZ-43" value="+ get_NIF() : int" style="text;strokeColor=none;fillColor=none;align=left;verticalAlign=top;spacingLeft=4;spacingRight=4;overflow=hidden;rotatable=0;points=[[0,0.5],[1,0.5]];portConstraint=eastwest;whiteSpace=wrap;html=1;" vertex="1" parent="JEjHz2yeaqNmLN5t5JRZ-30">
          <mxGeometry y="320" width="320" height="26" as="geometry" />
        </mxCell>
        <mxCell id="JEjHz2yeaqNmLN5t5JRZ-44" value="+ get_morada() : String" style="text;strokeColor=none;fillColor=none;align=left;verticalAlign=top;spacingLeft=4;spacingRight=4;overflow=hidden;rotatable=0;points=[[0,0.5],[1,0.5]];portConstraint=eastwest;whiteSpace=wrap;html=1;" vertex="1" parent="JEjHz2yeaqNmLN5t5JRZ-30">
          <mxGeometry y="346" width="320" height="26" as="geometry" />
        </mxCell>
        <mxCell id="JEjHz2yeaqNmLN5t5JRZ-45" value="+ get_numero_encomenda() : int" style="text;strokeColor=none;fillColor=none;align=left;verticalAlign=top;spacingLeft=4;spacingRight=4;overflow=hidden;rotatable=0;points=[[0,0.5],[1,0.5]];portConstraint=eastwest;whiteSpace=wrap;html=1;" vertex="1" parent="JEjHz2yeaqNmLN5t5JRZ-30">
          <mxGeometry y="372" width="320" height="26" as="geometry" />
        </mxCell>
        <mxCell id="JEjHz2yeaqNmLN5t5JRZ-46" value="+ get_data() : LocalDate" style="text;strokeColor=none;fillColor=none;align=left;verticalAlign=top;spacingLeft=4;spacingRight=4;overflow=hidden;rotatable=0;points=[[0,0.5],[1,0.5]];portConstraint=eastwest;whiteSpace=wrap;html=1;" vertex="1" parent="JEjHz2yeaqNmLN5t5JRZ-30">
          <mxGeometry y="398" width="320" height="26" as="geometry" />
        </mxCell>
        <mxCell id="JEjHz2yeaqNmLN5t5JRZ-47" value="+ get_linhas_encomenda() : List&amp;lt;LinhaEncomenda&amp;gt;" style="text;strokeColor=none;fillColor=none;align=left;verticalAlign=top;spacingLeft=4;spacingRight=4;overflow=hidden;rotatable=0;points=[[0,0.5],[1,0.5]];portConstraint=eastwest;whiteSpace=wrap;html=1;" vertex="1" parent="JEjHz2yeaqNmLN5t5JRZ-30">
          <mxGeometry y="424" width="320" height="26" as="geometry" />
        </mxCell>
        <mxCell id="JEjHz2yeaqNmLN5t5JRZ-48" value="+ set_cliente(cliente : String)" style="text;strokeColor=none;fillColor=none;align=left;verticalAlign=top;spacingLeft=4;spacingRight=4;overflow=hidden;rotatable=0;points=[[0,0.5],[1,0.5]];portConstraint=eastwest;whiteSpace=wrap;html=1;" vertex="1" parent="JEjHz2yeaqNmLN5t5JRZ-30">
          <mxGeometry y="450" width="320" height="26" as="geometry" />
        </mxCell>
        <mxCell id="JEjHz2yeaqNmLN5t5JRZ-49" value="+ set_NIF(NIF : int)" style="text;strokeColor=none;fillColor=none;align=left;verticalAlign=top;spacingLeft=4;spacingRight=4;overflow=hidden;rotatable=0;points=[[0,0.5],[1,0.5]];portConstraint=eastwest;whiteSpace=wrap;html=1;" vertex="1" parent="JEjHz2yeaqNmLN5t5JRZ-30">
          <mxGeometry y="476" width="320" height="26" as="geometry" />
        </mxCell>
        <mxCell id="JEjHz2yeaqNmLN5t5JRZ-50" value="+ set_morada(morada : String)" style="text;strokeColor=none;fillColor=none;align=left;verticalAlign=top;spacingLeft=4;spacingRight=4;overflow=hidden;rotatable=0;points=[[0,0.5],[1,0.5]];portConstraint=eastwest;whiteSpace=wrap;html=1;" vertex="1" parent="JEjHz2yeaqNmLN5t5JRZ-30">
          <mxGeometry y="502" width="320" height="26" as="geometry" />
        </mxCell>
        <mxCell id="JEjHz2yeaqNmLN5t5JRZ-51" value="+ calcula_valor_total() : double" style="text;strokeColor=none;fillColor=none;align=left;verticalAlign=top;spacingLeft=4;spacingRight=4;overflow=hidden;rotatable=0;points=[[0,0.5],[1,0.5]];portConstraint=eastwest;whiteSpace=wrap;html=1;" vertex="1" parent="JEjHz2yeaqNmLN5t5JRZ-30">
          <mxGeometry y="528" width="320" height="26" as="geometry" />
        </mxCell>
        <mxCell id="JEjHz2yeaqNmLN5t5JRZ-52" value="+ calcula_valor_desconto() : double" style="text;strokeColor=none;fillColor=none;align=left;verticalAlign=top;spacingLeft=4;spacingRight=4;overflow=hidden;rotatable=0;points=[[0,0.5],[1,0.5]];portConstraint=eastwest;whiteSpace=wrap;html=1;" vertex="1" parent="JEjHz2yeaqNmLN5t5JRZ-30">
          <mxGeometry y="554" width="320" height="26" as="geometry" />
        </mxCell>
        <mxCell id="JEjHz2yeaqNmLN5t5JRZ-54" value="+ numero_total_produtos() : int" style="text;strokeColor=none;fillColor=none;align=left;verticalAlign=top;spacingLeft=4;spacingRight=4;overflow=hidden;rotatable=0;points=[[0,0.5],[1,0.5]];portConstraint=eastwest;whiteSpace=wrap;html=1;" vertex="1" parent="JEjHz2yeaqNmLN5t5JRZ-30">
          <mxGeometry y="580" width="320" height="26" as="geometry" />
        </mxCell>
        <mxCell id="JEjHz2yeaqNmLN5t5JRZ-55" value="+ exist_produto(referencia : String) : boolean" style="text;strokeColor=none;fillColor=none;align=left;verticalAlign=top;spacingLeft=4;spacingRight=4;overflow=hidden;rotatable=0;points=[[0,0.5],[1,0.5]];portConstraint=eastwest;whiteSpace=wrap;html=1;" vertex="1" parent="JEjHz2yeaqNmLN5t5JRZ-30">
          <mxGeometry y="606" width="320" height="26" as="geometry" />
        </mxCell>
        <mxCell id="JEjHz2yeaqNmLN5t5JRZ-56" value="+ adiciona_linha(linha : LinhaEncomenda)" style="text;strokeColor=none;fillColor=none;align=left;verticalAlign=top;spacingLeft=4;spacingRight=4;overflow=hidden;rotatable=0;points=[[0,0.5],[1,0.5]];portConstraint=eastwest;whiteSpace=wrap;html=1;" vertex="1" parent="JEjHz2yeaqNmLN5t5JRZ-30">
          <mxGeometry y="632" width="320" height="26" as="geometry" />
        </mxCell>
        <mxCell id="JEjHz2yeaqNmLN5t5JRZ-57" value="+ remove_produto(referencia : String)" style="text;strokeColor=none;fillColor=none;align=left;verticalAlign=top;spacingLeft=4;spacingRight=4;overflow=hidden;rotatable=0;points=[[0,0.5],[1,0.5]];portConstraint=eastwest;whiteSpace=wrap;html=1;" vertex="1" parent="JEjHz2yeaqNmLN5t5JRZ-30">
          <mxGeometry y="658" width="320" height="26" as="geometry" />
        </mxCell>
        <mxCell id="JEjHz2yeaqNmLN5t5JRZ-59" value="+ equals(o : Object) : boolean" style="text;strokeColor=none;fillColor=none;align=left;verticalAlign=top;spacingLeft=4;spacingRight=4;overflow=hidden;rotatable=0;points=[[0,0.5],[1,0.5]];portConstraint=eastwest;whiteSpace=wrap;html=1;" vertex="1" parent="JEjHz2yeaqNmLN5t5JRZ-30">
          <mxGeometry y="684" width="320" height="26" as="geometry" />
        </mxCell>
        <mxCell id="JEjHz2yeaqNmLN5t5JRZ-60" value="+ toString() : String" style="text;strokeColor=none;fillColor=none;align=left;verticalAlign=top;spacingLeft=4;spacingRight=4;overflow=hidden;rotatable=0;points=[[0,0.5],[1,0.5]];portConstraint=eastwest;whiteSpace=wrap;html=1;" vertex="1" parent="JEjHz2yeaqNmLN5t5JRZ-30">
          <mxGeometry y="710" width="320" height="26" as="geometry" />
        </mxCell>
        <mxCell id="JEjHz2yeaqNmLN5t5JRZ-61" value="+ clone() : EncEficiente" style="text;strokeColor=none;fillColor=none;align=left;verticalAlign=top;spacingLeft=4;spacingRight=4;overflow=hidden;rotatable=0;points=[[0,0.5],[1,0.5]];portConstraint=eastwest;whiteSpace=wrap;html=1;" vertex="1" parent="JEjHz2yeaqNmLN5t5JRZ-30">
          <mxGeometry y="736" width="320" height="26" as="geometry" />
        </mxCell>
        <mxCell id="JEjHz2yeaqNmLN5t5JRZ-62" value="" style="endArrow=diamondThin;endFill=1;endSize=24;html=1;rounded=0;" edge="1" parent="1" source="JEjHz2yeaqNmLN5t5JRZ-1" target="JEjHz2yeaqNmLN5t5JRZ-30">
          <mxGeometry width="160" relative="1" as="geometry">
            <mxPoint x="729" y="800" as="sourcePoint" />
            <mxPoint x="569" y="800" as="targetPoint" />
          </mxGeometry>
        </mxCell>
        <mxCell id="JEjHz2yeaqNmLN5t5JRZ-64" value="- linhas_encomendas" style="text;html=1;align=center;verticalAlign=middle;resizable=0;points=[];autosize=1;strokeColor=none;fillColor=none;" vertex="1" parent="1">
          <mxGeometry x="579" y="620" width="140" height="30" as="geometry" />
        </mxCell>
      </root>
    </mxGraphModel>
  </diagram>
</mxfile>
